<?xml version="1.0" encoding="utf-8"?>
<svg width="22px" height="20px" viewBox="0 0 22 20" version="1.1" xmlns:xlink="http://www.w3.org/1999/xlink" xmlns="http://www.w3.org/2000/svg">
  <desc>Created with Lunacy</desc>
  <path d="M9.9207 18.8193C10.1507 19.0207 10.4459 19.1317 10.752 19.1317C11.058 19.1317 11.3533 19.0207 11.5831 18.8196C12.4538 18.0582 13.2927 17.3432 14.0329 16.7126C16.199 14.8665 18.0697 13.2723 19.3714 11.7016C20.8264 9.94596 21.504 8.28122 21.504 6.46259C21.504 4.69563 20.8983 3.06551 19.7982 1.87228C18.6851 0.664945 17.1575 0 15.4969 0C14.2556 0 13.1188 0.392437 12.1181 1.16632C11.613 1.55695 11.1554 2.03503 10.752 2.59268C10.3487 2.03503 9.891 1.55695 9.38602 1.16632C8.3854 0.392437 7.24861 0 6.00731 0C4.34651 0 2.81909 0.664945 1.70592 1.87228C0.605883 3.06551 0 4.69563 0 6.46259C0 8.28122 0.677742 9.94596 2.13281 11.7018C3.43448 13.2723 5.30529 14.8667 7.47173 16.7129L7.47551 16.7162C8.21445 17.3458 9.05198 18.0597 9.9207 18.8193ZM2.6319 2.72603C3.5039 1.78038 4.70254 1.25964 6.00733 1.25964C6.96299 1.25964 7.84056 1.56349 8.61543 2.16264C9.30613 2.69683 9.78716 3.37211 10.069 3.84461C10.2141 4.08759 10.4693 4.23262 10.752 4.23262C11.0347 4.23262 11.29 4.08759 11.435 3.84461C11.717 3.37211 12.1981 2.69683 12.8886 2.16264C13.6635 1.56349 14.541 1.25964 15.4969 1.25964C16.8015 1.25964 18.0003 1.78038 18.8721 2.72603C19.7571 3.68596 20.2445 5.0129 20.2445 6.46256C20.2445 7.99211 19.676 9.36007 18.4016 10.898C17.1696 12.3846 15.3374 13.9458 13.2159 15.7539C12.4727 16.387 11.6306 17.1048 10.7502 17.8715C9.8751 17.1063 9.03428 16.3897 8.29255 15.7575L8.28861 15.7542C6.16696 13.9461 4.33455 12.3846 3.1026 10.898C1.828 9.36007 1.25952 7.99211 1.25952 6.46256C1.25952 5.0129 1.74695 3.68596 2.6319 2.72603Z" id="Shape" fill="#FFFFFF" fill-rule="evenodd" stroke="none" />
</svg>